<?xml version="1.0" encoding="utf-8"?><svg viewBox="0 0 22 21" xmlns="http://www.w3.org/2000/svg" xmlns:xlink="http://www.w3.org/1999/xlink"><style>:root>svg{display:none}:root>svg:target{display:block}</style><svg fill="none" viewBox="0 0 12 10" id="arrow-success" xmlns="http://www.w3.org/2000/svg"><path d="M1 4.556L4.636 9 11 1" stroke="#fff" stroke-linecap="round"/></svg><svg fill="none" viewBox="0 0 22 21" id="heart-empty" xmlns="http://www.w3.org/2000/svg"><path d="M1 7.265C1 13.143 7 18.04 11 20c4-1.96 10-6.857 10-12.735 0-7.837-10-8.318-10-1.46C11-1.054 1-.573 1 7.264z" stroke="#E7717D"/></svg><svg fill="none" viewBox="0 0 20 19" id="heart-filled" xmlns="http://www.w3.org/2000/svg"><path d="M0 6.265C0 12.143 6 17.04 10 19c4-1.96 10-6.857 10-12.735 0-7.837-10-8.318-10-1.46 0-6.858-10-6.377-10 1.46z" fill="#E7717D"/></svg><svg fill="none" viewBox="0 0 22 21" id="heart-hover" xmlns="http://www.w3.org/2000/svg"><path d="M1 7.265C1 13.143 7 18.04 11 20c4-1.96 10-6.857 10-12.735 0-7.837-10-8.318-10-1.46C11-1.054 1-.573 1 7.264z" stroke="#fff"/></svg></svg>